# xmcd
#
# Track frame offsets: 
#        182
#        15535
#        30245
#        51775
#        71857
#        84232
#        104110
#        117015
#        128717
#        148602
#        164827
#        188137
#
# Disc length: 2890 seconds
#
# Revision: 9
# Processed by: cddbd v1.5.2PL0 Copyright (c) Steve Scherf et al.
# Submitted via: ExactAudioCopy v1.0b2
#
DISCID=a20b480c
DTITLE=Bad Brains - God Of Love
DYEAR=1995
DGENRE=Hardcore
TTITLE0=Cool Mountaineer
TTITLE1=Justice Keepers
TTITLE2=Long Time
TTITLE3=Rights Of A Child
TTITLE4=God Of Love
TTITLE5=Overs The Water
TTITLE6=Toungue Tee Tie
TTITLE7=Darling I Need You
TTITLE8=To The Heavens
TTITLE9=Thank JAH
TTITLE10=Big Fun
TTITLE11=How I Love Thee
EXTD=YEAR: 1995
EXTT0=
EXTT1=
EXTT2=
EXTT3=
EXTT4=
EXTT5=
EXTT6=
EXTT7=
EXTT8=
EXTT9=
EXTT10=
EXTT11=
PLAYORDER=
